<mxfile host="app.diagrams.net" agent="Mozilla/5.0 (Macintosh; Intel Mac OS X 10_15_7) AppleWebKit/537.36 (KHTML, like Gecko) Chrome/132.0.0.0 Safari/537.36" version="26.0.13">
  <diagram name="Page-1" id="bi9wTeqGg7opnGEOQCXC">
    <mxGraphModel dx="2692" dy="1182" grid="1" gridSize="10" guides="1" tooltips="1" connect="1" arrows="1" fold="1" page="1" pageScale="1" pageWidth="827" pageHeight="1169" math="0" shadow="0">
      <root>
        <mxCell id="0" />
        <mxCell id="1" parent="0" />
        <mxCell id="oQXaGAk2Z-N4J7IXXKrn-7" value="AWS Cloud" style="points=[[0,0],[0.25,0],[0.5,0],[0.75,0],[1,0],[1,0.25],[1,0.5],[1,0.75],[1,1],[0.75,1],[0.5,1],[0.25,1],[0,1],[0,0.75],[0,0.5],[0,0.25]];outlineConnect=0;gradientColor=none;html=1;whiteSpace=wrap;fontSize=20;fontStyle=0;container=1;pointerEvents=0;collapsible=0;recursiveResize=0;shape=mxgraph.aws4.group;grIcon=mxgraph.aws4.group_aws_cloud;strokeColor=#232F3E;fillColor=none;verticalAlign=top;align=left;spacingLeft=30;fontColor=#232F3E;dashed=0;textShadow=1;" vertex="1" parent="1">
          <mxGeometry x="60" y="80" width="730" height="500" as="geometry" />
        </mxCell>
        <mxCell id="oQXaGAk2Z-N4J7IXXKrn-16" value="Amazon DynamoDB" style="sketch=0;outlineConnect=0;fontColor=#232F3E;gradientColor=none;strokeColor=#ffffff;fillColor=#232F3E;dashed=0;verticalLabelPosition=middle;verticalAlign=bottom;align=center;html=1;whiteSpace=wrap;fontSize=10;fontStyle=1;spacing=3;shape=mxgraph.aws4.productIcon;prIcon=mxgraph.aws4.dynamodb;" vertex="1" parent="oQXaGAk2Z-N4J7IXXKrn-7">
          <mxGeometry x="220" y="224" width="80" height="110" as="geometry" />
        </mxCell>
        <mxCell id="oQXaGAk2Z-N4J7IXXKrn-20" value="" style="sketch=0;outlineConnect=0;fontColor=#232F3E;gradientColor=none;fillColor=#232F3D;strokeColor=none;dashed=0;verticalLabelPosition=bottom;verticalAlign=top;align=center;html=1;fontSize=12;fontStyle=0;aspect=fixed;pointerEvents=1;shape=mxgraph.aws4.data_stream;" vertex="1" parent="oQXaGAk2Z-N4J7IXXKrn-7">
          <mxGeometry x="390" y="224" width="78" height="78" as="geometry" />
        </mxCell>
        <mxCell id="oQXaGAk2Z-N4J7IXXKrn-21" value="" style="verticalLabelPosition=bottom;html=1;verticalAlign=top;align=center;strokeColor=none;fillColor=#00BEF2;shape=mxgraph.azure.scheduler;pointerEvents=1;" vertex="1" parent="oQXaGAk2Z-N4J7IXXKrn-7">
          <mxGeometry x="41" y="70" width="50" height="60" as="geometry" />
        </mxCell>
        <mxCell id="oQXaGAk2Z-N4J7IXXKrn-22" value="Amazon S3" style="sketch=0;outlineConnect=0;fontColor=#232F3E;gradientColor=none;strokeColor=#ffffff;fillColor=#232F3E;dashed=0;verticalLabelPosition=middle;verticalAlign=bottom;align=center;html=1;whiteSpace=wrap;fontSize=10;fontStyle=1;spacing=3;shape=mxgraph.aws4.productIcon;prIcon=mxgraph.aws4.s3;" vertex="1" parent="oQXaGAk2Z-N4J7IXXKrn-7">
          <mxGeometry x="550" y="380" width="80" height="100" as="geometry" />
        </mxCell>
        <mxCell id="oQXaGAk2Z-N4J7IXXKrn-23" value="" style="outlineConnect=0;dashed=0;verticalLabelPosition=bottom;verticalAlign=top;align=center;html=1;shape=mxgraph.aws3.lambda_function;fillColor=#F58534;gradientColor=none;" vertex="1" parent="oQXaGAk2Z-N4J7IXXKrn-7">
          <mxGeometry x="550" y="230" width="69" height="72" as="geometry" />
        </mxCell>
        <mxCell id="oQXaGAk2Z-N4J7IXXKrn-24" value="" style="outlineConnect=0;dashed=0;verticalLabelPosition=bottom;verticalAlign=top;align=center;html=1;shape=mxgraph.aws3.lambda_function;fillColor=#F58534;gradientColor=none;" vertex="1" parent="oQXaGAk2Z-N4J7IXXKrn-7">
          <mxGeometry x="41" y="230" width="69" height="72" as="geometry" />
        </mxCell>
        <mxCell id="oQXaGAk2Z-N4J7IXXKrn-25" value="" style="outlineConnect=0;dashed=0;verticalLabelPosition=bottom;verticalAlign=top;align=center;html=1;shape=mxgraph.aws3.iam;fillColor=#759C3E;gradientColor=none;" vertex="1" parent="oQXaGAk2Z-N4J7IXXKrn-7">
          <mxGeometry x="250" y="380" width="42" height="81" as="geometry" />
        </mxCell>
        <mxCell id="oQXaGAk2Z-N4J7IXXKrn-103" value="" style="edgeStyle=orthogonalEdgeStyle;html=1;endArrow=none;elbow=vertical;startArrow=openThin;startFill=0;strokeColor=#545B64;rounded=0;exitX=0.92;exitY=0.5;exitDx=0;exitDy=0;exitPerimeter=0;entryX=0.066;entryY=0.407;entryDx=0;entryDy=0;entryPerimeter=0;strokeWidth=4;" edge="1" parent="oQXaGAk2Z-N4J7IXXKrn-7" source="oQXaGAk2Z-N4J7IXXKrn-25" target="oQXaGAk2Z-N4J7IXXKrn-22">
          <mxGeometry width="100" relative="1" as="geometry">
            <mxPoint x="280" y="450" as="sourcePoint" />
            <mxPoint x="450" y="421" as="targetPoint" />
          </mxGeometry>
        </mxCell>
        <mxCell id="oQXaGAk2Z-N4J7IXXKrn-60" value="Assets" style="childLayout=tableLayout;recursiveResize=0;strokeColor=#98bf21;fillColor=#A7C942;shadow=1;" vertex="1" parent="1">
          <mxGeometry x="407" y="810" width="280" height="156" as="geometry" />
        </mxCell>
        <mxCell id="oQXaGAk2Z-N4J7IXXKrn-61" style="shape=tableRow;horizontal=0;startSize=0;swimlaneHead=0;swimlaneBody=0;top=0;left=0;bottom=0;right=0;dropTarget=0;collapsible=0;recursiveResize=0;expand=0;fontStyle=0;strokeColor=inherit;fillColor=#ffffff;" vertex="1" parent="oQXaGAk2Z-N4J7IXXKrn-60">
          <mxGeometry width="280" height="29" as="geometry" />
        </mxCell>
        <mxCell id="oQXaGAk2Z-N4J7IXXKrn-62" value="Title 1" style="connectable=0;recursiveResize=0;strokeColor=inherit;fillColor=#A7C942;align=center;fontStyle=1;fontColor=#FFFFFF;html=1;" vertex="1" parent="oQXaGAk2Z-N4J7IXXKrn-61">
          <mxGeometry width="93" height="29" as="geometry">
            <mxRectangle width="93" height="29" as="alternateBounds" />
          </mxGeometry>
        </mxCell>
        <mxCell id="oQXaGAk2Z-N4J7IXXKrn-63" value="Title 2" style="connectable=0;recursiveResize=0;strokeColor=inherit;fillColor=#A7C942;align=center;fontStyle=1;fontColor=#FFFFFF;html=1;" vertex="1" parent="oQXaGAk2Z-N4J7IXXKrn-61">
          <mxGeometry x="93" width="94" height="29" as="geometry">
            <mxRectangle width="94" height="29" as="alternateBounds" />
          </mxGeometry>
        </mxCell>
        <mxCell id="oQXaGAk2Z-N4J7IXXKrn-64" value="Title 3" style="connectable=0;recursiveResize=0;strokeColor=inherit;fillColor=#A7C942;align=center;fontStyle=1;fontColor=#FFFFFF;html=1;" vertex="1" parent="oQXaGAk2Z-N4J7IXXKrn-61">
          <mxGeometry x="187" width="93" height="29" as="geometry">
            <mxRectangle width="93" height="29" as="alternateBounds" />
          </mxGeometry>
        </mxCell>
        <mxCell id="oQXaGAk2Z-N4J7IXXKrn-65" value="" style="shape=tableRow;horizontal=0;startSize=0;swimlaneHead=0;swimlaneBody=0;top=0;left=0;bottom=0;right=0;dropTarget=0;collapsible=0;recursiveResize=0;expand=0;fontStyle=0;strokeColor=inherit;fillColor=#ffffff;" vertex="1" parent="oQXaGAk2Z-N4J7IXXKrn-60">
          <mxGeometry y="29" width="280" height="28" as="geometry" />
        </mxCell>
        <mxCell id="oQXaGAk2Z-N4J7IXXKrn-66" value="Value 1" style="connectable=0;recursiveResize=0;strokeColor=inherit;fillColor=inherit;align=center;whiteSpace=wrap;html=1;" vertex="1" parent="oQXaGAk2Z-N4J7IXXKrn-65">
          <mxGeometry width="93" height="28" as="geometry">
            <mxRectangle width="93" height="28" as="alternateBounds" />
          </mxGeometry>
        </mxCell>
        <mxCell id="oQXaGAk2Z-N4J7IXXKrn-67" value="Value 2" style="connectable=0;recursiveResize=0;strokeColor=inherit;fillColor=inherit;align=center;whiteSpace=wrap;html=1;" vertex="1" parent="oQXaGAk2Z-N4J7IXXKrn-65">
          <mxGeometry x="93" width="94" height="28" as="geometry">
            <mxRectangle width="94" height="28" as="alternateBounds" />
          </mxGeometry>
        </mxCell>
        <mxCell id="oQXaGAk2Z-N4J7IXXKrn-68" value="Value 3" style="connectable=0;recursiveResize=0;strokeColor=inherit;fillColor=inherit;align=center;whiteSpace=wrap;html=1;" vertex="1" parent="oQXaGAk2Z-N4J7IXXKrn-65">
          <mxGeometry x="187" width="93" height="28" as="geometry">
            <mxRectangle width="93" height="28" as="alternateBounds" />
          </mxGeometry>
        </mxCell>
        <mxCell id="oQXaGAk2Z-N4J7IXXKrn-69" value="" style="shape=tableRow;horizontal=0;startSize=0;swimlaneHead=0;swimlaneBody=0;top=0;left=0;bottom=0;right=0;dropTarget=0;collapsible=0;recursiveResize=0;expand=0;fontStyle=1;strokeColor=inherit;fillColor=#EAF2D3;" vertex="1" parent="oQXaGAk2Z-N4J7IXXKrn-60">
          <mxGeometry y="57" width="280" height="43" as="geometry" />
        </mxCell>
        <mxCell id="oQXaGAk2Z-N4J7IXXKrn-70" value="Value 4" style="connectable=0;recursiveResize=0;strokeColor=inherit;fillColor=inherit;whiteSpace=wrap;html=1;" vertex="1" parent="oQXaGAk2Z-N4J7IXXKrn-69">
          <mxGeometry width="93" height="43" as="geometry">
            <mxRectangle width="93" height="43" as="alternateBounds" />
          </mxGeometry>
        </mxCell>
        <mxCell id="oQXaGAk2Z-N4J7IXXKrn-71" value="Value 5" style="connectable=0;recursiveResize=0;strokeColor=inherit;fillColor=inherit;whiteSpace=wrap;html=1;" vertex="1" parent="oQXaGAk2Z-N4J7IXXKrn-69">
          <mxGeometry x="93" width="94" height="43" as="geometry">
            <mxRectangle width="94" height="43" as="alternateBounds" />
          </mxGeometry>
        </mxCell>
        <mxCell id="oQXaGAk2Z-N4J7IXXKrn-72" value="Value 6" style="connectable=0;recursiveResize=0;strokeColor=inherit;fillColor=inherit;whiteSpace=wrap;html=1;" vertex="1" parent="oQXaGAk2Z-N4J7IXXKrn-69">
          <mxGeometry x="187" width="93" height="43" as="geometry">
            <mxRectangle width="93" height="43" as="alternateBounds" />
          </mxGeometry>
        </mxCell>
        <mxCell id="oQXaGAk2Z-N4J7IXXKrn-73" value="" style="shape=tableRow;horizontal=0;startSize=0;swimlaneHead=0;swimlaneBody=0;top=0;left=0;bottom=0;right=0;dropTarget=0;collapsible=0;recursiveResize=0;expand=0;fontStyle=0;strokeColor=inherit;fillColor=#ffffff;" vertex="1" parent="oQXaGAk2Z-N4J7IXXKrn-60">
          <mxGeometry y="100" width="280" height="29" as="geometry" />
        </mxCell>
        <mxCell id="oQXaGAk2Z-N4J7IXXKrn-74" value="Value 7" style="connectable=0;recursiveResize=0;strokeColor=inherit;fillColor=inherit;fontStyle=0;align=center;whiteSpace=wrap;html=1;" vertex="1" parent="oQXaGAk2Z-N4J7IXXKrn-73">
          <mxGeometry width="93" height="29" as="geometry">
            <mxRectangle width="93" height="29" as="alternateBounds" />
          </mxGeometry>
        </mxCell>
        <mxCell id="oQXaGAk2Z-N4J7IXXKrn-75" value="Value 8" style="connectable=0;recursiveResize=0;strokeColor=inherit;fillColor=inherit;fontStyle=0;align=center;whiteSpace=wrap;html=1;" vertex="1" parent="oQXaGAk2Z-N4J7IXXKrn-73">
          <mxGeometry x="93" width="94" height="29" as="geometry">
            <mxRectangle width="94" height="29" as="alternateBounds" />
          </mxGeometry>
        </mxCell>
        <mxCell id="oQXaGAk2Z-N4J7IXXKrn-76" value="Value 9" style="connectable=0;recursiveResize=0;strokeColor=inherit;fillColor=inherit;fontStyle=0;align=center;whiteSpace=wrap;html=1;" vertex="1" parent="oQXaGAk2Z-N4J7IXXKrn-73">
          <mxGeometry x="187" width="93" height="29" as="geometry">
            <mxRectangle width="93" height="29" as="alternateBounds" />
          </mxGeometry>
        </mxCell>
        <mxCell id="oQXaGAk2Z-N4J7IXXKrn-77" value="" style="shape=tableRow;horizontal=0;startSize=0;swimlaneHead=0;swimlaneBody=0;top=0;left=0;bottom=0;right=0;dropTarget=0;collapsible=0;recursiveResize=0;expand=0;fontStyle=1;strokeColor=inherit;fillColor=#EAF2D3;" vertex="1" parent="oQXaGAk2Z-N4J7IXXKrn-60">
          <mxGeometry y="129" width="280" height="27" as="geometry" />
        </mxCell>
        <mxCell id="oQXaGAk2Z-N4J7IXXKrn-78" value="Value 10" style="connectable=0;recursiveResize=0;strokeColor=inherit;fillColor=inherit;whiteSpace=wrap;html=1;" vertex="1" parent="oQXaGAk2Z-N4J7IXXKrn-77">
          <mxGeometry width="93" height="27" as="geometry">
            <mxRectangle width="93" height="27" as="alternateBounds" />
          </mxGeometry>
        </mxCell>
        <mxCell id="oQXaGAk2Z-N4J7IXXKrn-79" value="Value 11" style="connectable=0;recursiveResize=0;strokeColor=inherit;fillColor=inherit;whiteSpace=wrap;html=1;" vertex="1" parent="oQXaGAk2Z-N4J7IXXKrn-77">
          <mxGeometry x="93" width="94" height="27" as="geometry">
            <mxRectangle width="94" height="27" as="alternateBounds" />
          </mxGeometry>
        </mxCell>
        <mxCell id="oQXaGAk2Z-N4J7IXXKrn-80" value="Value 12" style="connectable=0;recursiveResize=0;strokeColor=inherit;fillColor=inherit;whiteSpace=wrap;html=1;" vertex="1" parent="oQXaGAk2Z-N4J7IXXKrn-77">
          <mxGeometry x="187" width="93" height="27" as="geometry">
            <mxRectangle width="93" height="27" as="alternateBounds" />
          </mxGeometry>
        </mxCell>
        <mxCell id="oQXaGAk2Z-N4J7IXXKrn-81" value="" style="shape=mxgraph.signs.nature.snowflake;html=1;pointerEvents=1;fillColor=#000000;strokeColor=none;verticalLabelPosition=bottom;verticalAlign=top;align=center;" vertex="1" parent="1">
          <mxGeometry x="510" y="610" width="87" height="98" as="geometry" />
        </mxCell>
        <mxCell id="oQXaGAk2Z-N4J7IXXKrn-83" value="" style="sketch=0;outlineConnect=0;fontColor=#232F3E;gradientColor=none;fillColor=#DD344C;strokeColor=none;dashed=0;verticalLabelPosition=bottom;verticalAlign=top;align=center;html=1;fontSize=12;fontStyle=0;aspect=fixed;pointerEvents=1;shape=mxgraph.aws4.sts;" vertex="1" parent="1">
          <mxGeometry x="290" y="634" width="78" height="50" as="geometry" />
        </mxCell>
        <mxCell id="oQXaGAk2Z-N4J7IXXKrn-85" value="" style="shape=image;html=1;verticalAlign=top;verticalLabelPosition=bottom;labelBackgroundColor=#ffffff;imageAspect=0;aspect=fixed;image=https://cdn3.iconfinder.com/data/icons/weather-free-2/32/Weather_Free_Outline_day-cloud-weather-cloudy-sky-128.png" vertex="1" parent="1">
          <mxGeometry x="-310" y="170" width="128" height="128" as="geometry" />
        </mxCell>
        <mxCell id="oQXaGAk2Z-N4J7IXXKrn-87" value="Weather API" style="fillColor=none;strokeColor=#5A6C86;dashed=1;verticalAlign=top;fontStyle=1;fontColor=#5A6C86;whiteSpace=wrap;html=1;textShadow=1;fontSize=20;labelBorderColor=none;labelBackgroundColor=none;" vertex="1" parent="1">
          <mxGeometry x="-371" y="124" width="250" height="220" as="geometry" />
        </mxCell>
        <mxCell id="oQXaGAk2Z-N4J7IXXKrn-93" value="" style="edgeStyle=orthogonalEdgeStyle;html=1;endArrow=block;elbow=vertical;startArrow=none;endFill=1;strokeColor=#545B64;rounded=0;exitX=1;exitY=0.25;exitDx=0;exitDy=0;entryX=0.04;entryY=0.48;entryDx=0;entryDy=0;entryPerimeter=0;strokeWidth=4;" edge="1" parent="1" source="oQXaGAk2Z-N4J7IXXKrn-87" target="oQXaGAk2Z-N4J7IXXKrn-21">
          <mxGeometry width="100" relative="1" as="geometry">
            <mxPoint x="340" y="530" as="sourcePoint" />
            <mxPoint x="440" y="530" as="targetPoint" />
          </mxGeometry>
        </mxCell>
        <mxCell id="oQXaGAk2Z-N4J7IXXKrn-97" value="" style="edgeStyle=orthogonalEdgeStyle;html=1;endArrow=block;elbow=vertical;startArrow=none;endFill=1;strokeColor=#545B64;rounded=0;exitX=1;exitY=0.5;exitDx=0;exitDy=0;exitPerimeter=0;strokeWidth=4;" edge="1" parent="1" source="oQXaGAk2Z-N4J7IXXKrn-24">
          <mxGeometry width="100" relative="1" as="geometry">
            <mxPoint x="340" y="530" as="sourcePoint" />
            <mxPoint x="270" y="346" as="targetPoint" />
          </mxGeometry>
        </mxCell>
        <mxCell id="oQXaGAk2Z-N4J7IXXKrn-98" value="" style="edgeStyle=orthogonalEdgeStyle;html=1;endArrow=block;elbow=vertical;startArrow=none;endFill=1;strokeColor=#545B64;rounded=0;exitX=0.964;exitY=0.383;exitDx=0;exitDy=0;exitPerimeter=0;strokeWidth=4;" edge="1" parent="1" source="oQXaGAk2Z-N4J7IXXKrn-16">
          <mxGeometry width="100" relative="1" as="geometry">
            <mxPoint x="340" y="530" as="sourcePoint" />
            <mxPoint x="440" y="346" as="targetPoint" />
          </mxGeometry>
        </mxCell>
        <mxCell id="oQXaGAk2Z-N4J7IXXKrn-100" value="" style="edgeStyle=orthogonalEdgeStyle;html=1;endArrow=block;elbow=vertical;startArrow=none;endFill=1;strokeColor=#545B64;rounded=0;entryX=0;entryY=0.5;entryDx=0;entryDy=0;entryPerimeter=0;strokeWidth=4;" edge="1" parent="1" target="oQXaGAk2Z-N4J7IXXKrn-23">
          <mxGeometry width="100" relative="1" as="geometry">
            <mxPoint x="540" y="346" as="sourcePoint" />
            <mxPoint x="440" y="530" as="targetPoint" />
          </mxGeometry>
        </mxCell>
        <mxCell id="oQXaGAk2Z-N4J7IXXKrn-101" value="" style="edgeStyle=orthogonalEdgeStyle;html=1;endArrow=block;elbow=vertical;startArrow=none;endFill=1;strokeColor=#545B64;rounded=0;exitX=0.57;exitY=1;exitDx=0;exitDy=0;exitPerimeter=0;strokeWidth=4;" edge="1" parent="1" source="oQXaGAk2Z-N4J7IXXKrn-21">
          <mxGeometry width="100" relative="1" as="geometry">
            <mxPoint x="340" y="530" as="sourcePoint" />
            <mxPoint x="129" y="300" as="targetPoint" />
          </mxGeometry>
        </mxCell>
        <mxCell id="oQXaGAk2Z-N4J7IXXKrn-105" value="" style="edgeStyle=orthogonalEdgeStyle;html=1;endArrow=block;elbow=vertical;startArrow=none;endFill=1;strokeColor=#545B64;rounded=0;exitX=0.5;exitY=1;exitDx=0;exitDy=0;exitPerimeter=0;strokeWidth=4;" edge="1" parent="1" source="oQXaGAk2Z-N4J7IXXKrn-23">
          <mxGeometry width="100" relative="1" as="geometry">
            <mxPoint x="340" y="530" as="sourcePoint" />
            <mxPoint x="645" y="456" as="targetPoint" />
          </mxGeometry>
        </mxCell>
        <mxCell id="oQXaGAk2Z-N4J7IXXKrn-120" value="" style="edgeStyle=orthogonalEdgeStyle;html=1;endArrow=block;elbow=vertical;startArrow=none;endFill=1;strokeColor=#545B64;rounded=0;strokeWidth=4;" edge="1" parent="1">
          <mxGeometry width="100" relative="1" as="geometry">
            <mxPoint x="387" y="660" as="sourcePoint" />
            <mxPoint x="487" y="660" as="targetPoint" />
          </mxGeometry>
        </mxCell>
        <mxCell id="oQXaGAk2Z-N4J7IXXKrn-128" value="" style="edgeStyle=orthogonalEdgeStyle;html=1;endArrow=block;elbow=vertical;startArrow=none;endFill=1;strokeColor=#545B64;rounded=0;exitX=0.5;exitY=1;exitDx=0;exitDy=0;exitPerimeter=0;strokeWidth=4;" edge="1" parent="1">
          <mxGeometry width="100" relative="1" as="geometry">
            <mxPoint x="553.5" y="714.0000000000002" as="sourcePoint" />
            <mxPoint x="553" y="796" as="targetPoint" />
          </mxGeometry>
        </mxCell>
        <mxCell id="oQXaGAk2Z-N4J7IXXKrn-130" value="" style="edgeStyle=orthogonalEdgeStyle;html=1;endArrow=block;elbow=vertical;startArrow=none;endFill=1;strokeColor=#545B64;rounded=0;exitX=0.5;exitY=1;exitDx=0;exitDy=0;exitPerimeter=0;strokeWidth=4;" edge="1" parent="1">
          <mxGeometry width="100" relative="1" as="geometry">
            <mxPoint x="331" y="542.9999999999998" as="sourcePoint" />
            <mxPoint x="331" y="622" as="targetPoint" />
          </mxGeometry>
        </mxCell>
        <mxCell id="oQXaGAk2Z-N4J7IXXKrn-131" value="&lt;p&gt;&lt;font face=&quot;Lucida Console&quot; style=&quot;font-size: 22px;&quot;&gt;&lt;b style=&quot;&quot;&gt;Snowflake&lt;/b&gt;&lt;/font&gt;&lt;/p&gt;" style="fillColor=none;strokeColor=#5A6C86;dashed=1;verticalAlign=top;fontStyle=0;fontColor=#5A6C86;whiteSpace=wrap;html=1;align=left;" vertex="1" parent="1">
          <mxGeometry x="70" y="610" width="720" height="390" as="geometry" />
        </mxCell>
      </root>
    </mxGraphModel>
  </diagram>
</mxfile>
